<svg xmlns="http://www.w3.org/2000/svg" viewBox="0 0 566.23 555.71"><defs><style>.cls-1{fill:#54ba65;}.cls-2{fill:#1a6384;}.cls-3{fill:#0c825d;}</style></defs><g id="Layer_2" data-name="Layer 2"><g id="Layer_1-2" data-name="Layer 1"><path class="cls-1" d="M454.28,77c-.7,2.94-2.94,4.13-4.26,6a62.33,62.33,0,0,0-9.53,20.16c-.68,2.59-1.9,3.1-4.17,3-14.48-1-28.46,1.66-42.21,6-10.13,3.17-19.95,3.18-29.21-3-7.14-4.74-11-11.65-14-19.39-5.48-14.24-13.1-27.2-24.07-38-9.75-9.58-20.79-16.82-34.57-19.2-15.45-2.68-29.38,1.16-42,10C233.84,54,223.27,70,215.85,88.39c-2.42,6-4.71,12-9.62,16.66-8.73,8.34-18.83,10.83-30.32,8-8.86-2.21-17.54-5.18-26.67-6.21-16.82-1.88-33.27-1-48.69,6.82C84,122,74.32,135.68,71.24,153.86c-3.26,19.27,1.5,37.25,9.63,54.54,2,4.33,4.68,8.38,7,12.58,7.51,13.63,5.39,28.76-5.42,39.37-2.64,2.59-5.85,4.41-8.87,6.4a106.64,106.64,0,0,0-29.32,29c-7.81,11.39-12.75,23.91-12.73,38,0,15.09,6.12,27.77,16.54,38.31,12.75,12.89,28.56,20.32,46.12,24.19,5.51,1.22,11.12,2,16.67,3a30.8,30.8,0,0,1,25.38,31.23c-.2,9.47-1.18,18.94-.2,28.42,1.63,15.94,6.06,30.87,16,43.82q16.8,21.91,44.35,21.57c16.55-.18,31-6.36,44.82-14.89,8.24-5.11,14.93-12.09,22.4-18.12a30.85,30.85,0,0,1,37.54-1.09c7,5.05,12.7,11.66,19.87,16.52,15.7,10.63,32.39,18.13,51.92,17.55,20.08-.59,34.69-10.34,45-26.91,10.42-16.81,13.49-35.5,12.56-55-.18-3.82-.35-7.65-.54-11.47a31,31,0,0,1,24.48-31.45c5.87-1.17,11.82-1.94,17.66-3.24,17.71-3.95,33.72-11.44,46.44-24.62,15.55-16.13,20-35.17,13-56.54-5.81-17.81-17.36-31.51-31.78-43-4-3.2-8.27-6.11-12.47-9.08a31.34,31.34,0,0,1-8.92-41.84,121.16,121.16,0,0,0,16.12-40c.25-1.28.24-2.74,2.15-2.76a65,65,0,0,0,30-7.09,39.17,39.17,0,0,1-.43,10.46c-2.72,18.15-9.12,34.95-18.2,50.81-2.79,4.87-2.76,4.83,2,8.06,22.13,15.13,39.76,34.19,49.46,59.48,12.58,32.77,7.82,63.06-15.19,89.85-17.6,20.49-41,31.13-66.72,37.22a72,72,0,0,1-12.29,2.06c-2.91.17-3.94,1.5-3.69,4.52A145.92,145.92,0,0,1,459.87,473c-4.8,25.57-15.34,48.06-36.13,64.62-14,11.17-30.15,16.93-48.22,17.75-33.71,1.55-61.2-12.34-85.94-33.51-2.14-1.83-4.25-3.69-6.63-5.75-5.25,4.6-10.25,9.4-15.8,13.56-17.16,12.88-36,22.44-57.33,25.11-27,3.39-51.9-2.29-72.6-21.46-15.29-14.16-24-31.86-29.08-51.73-4-15.47-4.61-31.16-3.72-47,.26-4.61.29-4.74-4.29-5.37a138.37,138.37,0,0,1-57.92-21.45C23,395.22,9.43,378.18,3.18,356S.22,312.61,10,292c6.7-14.05,16.47-25.94,27.06-36.9,5.57-5.77,12.6-10.61,19.6-15,4.08-2.59,4-2.73,1.66-6.87C50.32,219,44,204,41,187.88c-3.69-19.49-3.2-38.84,4.21-57.41,10.7-26.82,30.74-43.55,58.22-51.63,17.57-5.17,35.44-5.27,53.4-2.65a138.33,138.33,0,0,1,22.8,5.28c4.4,1.43,4.82,1.27,6.26-2.88a124,124,0,0,1,13.25-26.88c9.64-14.81,21.22-28.15,36.51-37.45,27.17-16.52,55.56-19.13,84.72-5.5,19.39,9,33.74,23.82,45.37,41.47a146.07,146.07,0,0,1,14.84,29.26c1.07,2.87,2.31,3.43,5.18,2.44a141.84,141.84,0,0,1,53.55-7.19A71.21,71.21,0,0,1,454.28,77Z"/><path class="cls-2" d="M536.14,118.75c.25,20.61-16.68,37.61-37.73,37.56a37.84,37.84,0,0,1,.13-75.67C519.15,80.63,537,98.08,536.14,118.75Z"/><path class="cls-3" d="M285.25,298.57c-.34-5.55.91-13.89-.66-22.11-.25-1.33.35-1.43.92-1.61,3.33-1.07,6.68-2,10-3,.44-.13,1.35-.1,1.39.06,1.38,4.58,4.28,1.47,6.27,1,12.67-2.82,22.28,4.44,22.75,17.43a26.52,26.52,0,0,1-1.17,9.86,16.73,16.73,0,0,1-21.33,10.51,15.26,15.26,0,0,1-2.77-1.15c-2.63-1.5-3.16-.09-3.16,2.18,0,2.66,0,5.33,0,8-.06,5.76-1.07,6.77-6.65,6.71-.49,0-1-.08-1.49-.09-4-.1-4.08-.1-4.11-4.1C285.22,315.28,285.25,308.29,285.25,298.57Zm12.16-7.24h0c0,2.49-.05,5,0,7.47.05,1.66.25,3.2,1.92,4.29,4.86,3.15,11.27,1.44,13.34-3.92a19.53,19.53,0,0,0,.74-12.23c-1.73-6.43-6.11-8.83-12.48-7.17-2.27.6-3.47,1.78-3.5,4.09C297.38,286.35,297.41,288.84,297.41,291.33Z"/><path class="cls-3" d="M185.93,274.79c.35-4.2.66-7.86-.1-11.46-.38-1.83.27-2.35,1.82-2.74,2.57-.63,5.14-1.31,7.64-2.17,2.28-.8,3-.08,2.94,2.21-.1,5,0,10,0,15,0,9.81.06,19.63,0,29.44,0,4.42-.84,5.39-5.27,5.22-2.35-.1-5.32,1.74-7.15-1.58-.32-.6-1.43.37-2.16.68a23.92,23.92,0,0,1-7.13,2.17A16.7,16.7,0,0,1,158.32,298a30.75,30.75,0,0,1,.19-13.37c2.08-9,11.88-14.17,21.69-11.62C182,273.47,183.65,274.08,185.93,274.79Zm.28,16.93h0c0-2.83,0-5.65,0-8.48a2.74,2.74,0,0,0-1.55-2.79c-4.41-2.36-10.19-1.17-12.91,2.85-2.85,4.21-2.4,14.65.8,18.49,2.16,2.59,6,3.44,9.57,2.24,3.35-1.14,4.56-3.39,4.14-6.83A45.5,45.5,0,0,1,186.21,291.72Z"/><path class="cls-3" d="M351.58,312.37c-8.73-.08-15.4-3-19.42-10.15a19.47,19.47,0,0,1,.29-20.43c5.95-10.07,18.32-11.42,27.3-8.35,9.49,3.25,14.69,12.46,13,22.57C371.09,305.48,362.73,312.71,351.58,312.37Zm8.85-19.86a58.8,58.8,0,0,0-.78-6.38c-.93-4.09-4.24-7-7.83-7.12-4.3-.18-7.25,2-8.68,6.63a21.72,21.72,0,0,0,0,13.18c1.41,4.49,4.47,6.84,8.62,6.65,3.73-.17,6.79-2.89,7.87-7.06A24.27,24.27,0,0,0,360.43,292.51Z"/><path class="cls-3" d="M376.67,275.45c3.45-1.79,7-2.19,10.25-3.33.61-.22,1.66-.51,1.9-.23,2.59,2.93,5.52.64,8.26.59a35.69,35.69,0,0,1,5-.07c8.92,1,13,5.38,13.18,14.84.1,5.81,0,11.62-.05,17.43-.1,5-1,5.77-5.88,5.76-6.18,0-6.17,0-6.18-6.32,0-5.81.09-11.63-.06-17.43-.12-5-1.88-6.87-6.26-7.28-5.34-.49-6.78.81-6.79,6.18,0,6.31.08,12.63,0,18.93-.06,5-.79,5.66-5.83,5.89l-1.5,0c-4.67,0-4.71,0-4.74-4.5,0-8,0-15.94,0-23.91C377.88,279.76,378.1,277.46,376.67,275.45Z"/><path class="cls-3" d="M461.14,312.37c-16.18,0-25.76-12.28-21.29-26.83a18.25,18.25,0,0,1,8.26-10.21c7.82-4.91,20.24-4.26,26.73,1.33a10.06,10.06,0,0,1,3.73,6.79c.26,2.67-.15,5.08-2.73,6.42a7.55,7.55,0,0,1-8-.56,3.72,3.72,0,0,1-1.6-3.91c.45-2.76-.44-5-3.21-6a7.41,7.41,0,0,0-7.86,1.63,7.88,7.88,0,0,0-1.28,1.53c-3.3,4.73-3.07,14.7.18,19.45a7.18,7.18,0,0,0,7.29,3.29,5.68,5.68,0,0,0,5.15-4.72c.68-3.53,2.7-4,5.7-2.92a19.51,19.51,0,0,0,2.44.49c4.85,1.07,5.46,2.34,2.54,6.56C473.23,310.41,467.49,312.56,461.14,312.37Z"/><path class="cls-3" d="M258,272.14c16.08-.07,25.88,12.6,21.34,26.69a17.47,17.47,0,0,1-9.08,10.74,24.64,24.64,0,0,1-20.77,1.07,19.52,19.52,0,0,1-12.28-21.13c1.25-9.16,8.45-16,18-17.18C256.39,272.18,257.56,272.17,258,272.14Zm-8.19,20.17c.07,3.34.14,6.67,2.22,9.55,3.78,5.22,11,5,13.92-.77a18.81,18.81,0,0,0-.1-17.76c-3.09-5.89-10-6-13.8-.56C250,285.7,249.92,289,249.81,292.31Z"/><path class="cls-3" d="M110.27,283.25c0,6.81,0,13.61,0,20.42,0,6.13-.67,6.72-7,6.74a13.22,13.22,0,0,0-2,0c-2.74.41-3.35-1-3.31-3.42.1-7.47.18-14.94,0-22.41-.18-7.25.83-14.54-.64-21.75-.21-1,.39-1.54,1.17-1.94a3.42,3.42,0,0,1,.94-.29c3.43-.54,7.36-3.77,9.84-2.12s.76,6.45.91,9.84c.21,5,.06,9.95.06,14.93Z"/><path class="cls-3" d="M217.51,276c3.59-1.61,6.86-4,11.15-3.67,3,.21,5.09,1.22,6,4.13a5.17,5.17,0,0,1-1.94,6.16c-2.16,1.58-6.78,1.64-8.29-.41s-2.79-2.42-5-1.59c-2.61,1-2.65,3-2.63,5.26.05,6,.09,11.94-.06,17.9-.15,5.81-5.38,8.88-10.7,6.45-1.58-.72-1.32-2.15-1.33-3.42,0-5.8,0-11.6-.06-17.41,0-3.31.39-6.72-.26-9.92-.73-3.63.42-5.2,3.81-5.75a28.19,28.19,0,0,0,3.36-.89C216.17,271.47,216.17,271.47,217.51,276Z"/><path class="cls-3" d="M433.75,291.4c0,4.49.09,9,0,13.47s-1.13,5.46-5.71,5.66c-1.16.05-2.35-.21-3.49-.06-2.62.36-3-.89-2.92-3.18.14-8-.06-16,.13-23.94.05-2-1.86-4.16-.42-5.6,1.26-1.25,3.6-1.47,5.49-2,8.71-2.54,6.77-2.42,7,4.71,0,1.82,0,3.66,0,5.48v5.49Z"/><path class="cls-3" d="M134.65,287.83c-4.48,0-9-.06-13.45,0-2.11,0-3.35-.81-2.91-2.89.36-1.75-1.37-4.55,2.42-4.92a45.62,45.62,0,0,1,9.78-.17c5.25.59,10.61.19,15.92.29,1.36,0,3.39-.79,3.75,1.31s.61,4.29-.32,6.33c-.34.75-1.11.29-1.75.28-4.47-.06-9,0-13.44,0Z"/><path class="cls-3" d="M428.13,257.46c1.15,0,2.3,0,3.45,0,3.43.12,2.31,2.85,2.08,4.39-.32,2.21,2.08,5.54-2,6.47a20.7,20.7,0,0,1-4.92.08c-5.7-.07-5,.65-5.09-4.9C421.62,257.37,421.63,257.37,428.13,257.46Z"/></g></g></svg>